<?xml version="1.0" encoding="UTF-8"?>
<svg width="29px" height="29px" viewBox="0 0 29 29" version="1.1" xmlns="http://www.w3.org/2000/svg" xmlns:xlink="http://www.w3.org/1999/xlink">
    <!-- Generator: Sketch 50.2 (55047) - http://www.bohemiancoding.com/sketch -->
    <title>usp1-icon</title>
    <desc>Created with Sketch.</desc>
    <defs>
        <polygon id="path-1" points="0 5.96707819e-06 28.9641237 5.96707819e-06 28.9641237 28.9594239 0 28.9594239"></polygon>
    </defs>
    <g id="Symbols" stroke="none" stroke-width="1" fill="none" fill-rule="evenodd">
        <g id="USP" transform="translate(0.000000, -4.000000)">
            <g id="usp1-icon">
                <g transform="translate(0.000000, 4.000000)">
                    <mask id="mask-2" fill="white">
                        <use xlink:href="#path-1"></use>
                    </mask>
                    <g id="Clip-2"></g>
                    <path d="M15.0979381,27.4694504 L15.0979381,10.0694504 L21.382268,8.08241337 L21.382268,10.0097796 L22.6140206,9.48467675 L22.6140206,7.69455329 L27.7263918,6.08344218 L27.7263918,23.4118372 L27.7323711,23.4118372 L15.0979381,27.4694504 Z M14.4820619,8.95957387 L2.58907216,5.21224877 L8.19175258,3.38632284 L19.8694845,7.23508827 L14.4820619,8.95957387 Z M13.8661856,27.4694504 L1.23175258,23.471508 L1.23175258,6.08344218 L13.8661856,10.117187 L13.8661856,27.4694504 Z M14.4820619,1.33364794 L26.3750515,5.14661091 L21.8845361,6.58467675 L10.1649485,2.73591132 L14.4820619,1.33364794 Z M28.7189691,4.71698128 C28.6830928,4.70504712 14.6674227,0.0447590535 14.6674227,0.0447590535 C14.5418557,-0.0149117284 14.422268,-0.0149117284 14.296701,0.0447590535 L0.430515464,4.59763971 C0.0837113402,4.74084959 0,5.0392035 0,5.21224877 L0,23.9071047 C0,24.2173928 0.185360825,24.462043 0.430515464,24.5217138 L14.123299,28.889615 C14.3325773,28.967187 14.5597938,28.9970224 14.8468041,28.889615 L28.5336082,24.5217138 C28.7787629,24.3964051 28.9641237,24.1517549 28.9641237,23.9071047 L28.9641237,5.21224877 C28.9641237,5.02726934 28.9043299,4.84228992 28.7189691,4.71698128 Z" id="Fill-1" fill="#000000" mask="url(#mask-2)"></path>
                </g>
            </g>
        </g>
    </g>
</svg>