<?xml version="1.0" encoding="UTF-8"?>
<svg width="30px" height="32px" viewBox="0 0 30 32" version="1.1" xmlns="http://www.w3.org/2000/svg" xmlns:xlink="http://www.w3.org/1999/xlink">
    <!-- Generator: Sketch 50.2 (55047) - http://www.bohemiancoding.com/sketch -->
    <title>usp2-icon</title>
    <desc>Created with Sketch.</desc>
    <defs></defs>
    <g id="Symbols" stroke="none" stroke-width="1" fill="none" fill-rule="evenodd">
        <g id="USP" transform="translate(-300.000000, -3.000000)" fill="#000000" fill-rule="nonzero">
            <g id="usp2-icon">
                <g transform="translate(300.000000, 3.000000)">
                    <path d="M16.3553571,16.2949333 L9.42107143,11.3013333 C9.20892857,11.1493333 8.91482143,11.1717333 8.72839286,11.3568 C8.54196429,11.5424 8.51892857,11.8346667 8.67267857,12.0464 L13.6896429,18.9509333 C14.0185714,19.4016 14.5269643,19.6848 15.0846429,19.728 C15.135,19.7317333 15.1848214,19.7333333 15.2341071,19.7333333 C15.73875,19.7333333 16.2241071,19.5349333 16.5835714,19.1765333 C16.9783929,18.7834667 17.1803571,18.24 17.1369643,17.6848 C17.0935714,17.1296 16.8091071,16.6234667 16.3553571,16.2949333 Z M15.8260714,18.4224 C15.6525,18.5946667 15.4108929,18.6826667 15.1682143,18.664 C14.9239286,18.6453333 14.7005357,18.5205333 14.5569643,18.3242667 L11.4964286,14.1125333 L15.7258929,17.1584 C15.9246429,17.3024 16.0494643,17.5248 16.06875,17.7685333 C16.0880357,18.0112 15.9991071,18.2501333 15.8260714,18.4224 Z" id="Shape"></path>
                    <path d="M28.9719643,13.8784 C28.9714286,13.8768 28.9719643,13.8746667 28.9714286,13.8730667 C28.9708929,13.8709333 28.9692857,13.8693333 28.96875,13.8672 C28.6408929,12.6517333 28.1555357,11.5008 27.5383929,10.4341333 C27.5330357,10.4229333 27.5330357,10.4112 27.5266071,10.4 C27.5201786,10.3893333 27.51,10.3834667 27.5030357,10.3733333 C26.9614286,9.448 26.3207143,8.58826667 25.5926786,7.80853333 L26.7428571,6.66346667 L27.5008929,7.4176 L29.7733929,5.1552 L27.5008929,2.89226667 L25.2278571,5.1552 L25.9853571,5.90933333 L24.8351786,7.0544 C24.0519643,6.33013333 23.1883929,5.69173333 22.2589286,5.15253333 C22.24875,5.1456 22.2428571,5.13546667 22.2321429,5.12906667 C22.2214286,5.12266667 22.2085714,5.1232 22.1978571,5.11733333 C21.1264286,4.5024 19.9703571,4.01973333 18.75,3.69333333 C18.7478571,3.6928 18.74625,3.6912 18.7441071,3.69066667 C18.7419643,3.69013333 18.7403571,3.69066667 18.73875,3.69066667 C18.0466071,3.50613333 17.3351786,3.37173333 16.6071429,3.2912 L16.6071429,2.66666667 L17.4107143,2.66666667 C18.1494643,2.66666667 18.75,2.0688 18.75,1.33333333 C18.75,0.597866667 18.1494643,0 17.4107143,0 L12.5892857,0 C11.8505357,0 11.25,0.597866667 11.25,1.33333333 C11.25,2.0688 11.8505357,2.66666667 12.5892857,2.66666667 L13.3928571,2.66666667 L13.3928571,3.2912 C12.6648214,3.37173333 11.9533929,3.50613333 11.2617857,3.69066667 C11.2596429,3.6912 11.2580357,3.69066667 11.2564286,3.6912 C11.2542857,3.69173333 11.2526786,3.69333333 11.2505357,3.69386667 C10.0301786,4.02026667 8.87410714,4.50346667 7.80267857,5.11786667 C7.79142857,5.1232 7.77910714,5.1232 7.76785714,5.1296 C7.75714286,5.136 7.75125,5.14613333 7.74107143,5.15306667 C6.81214286,5.69226667 5.94803571,6.33013333 5.16482143,7.05493333 L4.01464286,5.90933333 L4.77214286,5.1552 L2.49910714,2.89226667 L0.226607143,5.1552 L2.49910714,7.4176 L3.25714286,6.66346667 L4.40732143,7.80853333 C3.67982143,8.58826667 3.03857143,9.448 2.4975,10.3733333 C2.49053571,10.3834667 2.47982143,10.3893333 2.47392857,10.4 C2.4675,10.4112 2.46803571,10.4229333 2.46214286,10.4341333 C1.84446429,11.5008 1.35964286,12.6517333 1.03178571,13.8672 C1.03125,13.8693333 1.02964286,13.8709333 1.02910714,13.8730667 C1.02857143,13.8746667 1.02910714,13.8768 1.02857143,13.8784 C0.70875,15.0666667 0.535714286,16.3130667 0.535714286,17.6 C0.535714286,18.8869333 0.70875,20.1333333 1.02803571,21.3216 C1.02857143,21.3237333 1.02803571,21.3253333 1.02857143,21.3269333 C1.02910714,21.3296 1.03125,21.3317333 1.03178571,21.3344 C1.35964286,22.5493333 1.84446429,23.6997333 2.46160714,24.7658667 C2.46696429,24.7770667 2.46696429,24.7888 2.47339286,24.8 C2.4825,24.8154667 2.49535714,24.8272 2.50553571,24.8416 C3.12964286,25.9045333 3.88392857,26.8826667 4.75071429,27.7504 C4.75928571,27.7605333 4.7625,27.7728 4.77214286,27.7824 C4.78178571,27.792 4.79410714,27.7952 4.80428571,27.8037333 C5.67964286,28.6709333 6.6675,29.4245333 7.74107143,30.0474667 C7.75125,30.0544 7.75714286,30.0645333 7.76785714,30.0709333 C7.78392857,30.08 7.80160714,30.0842667 7.81821429,30.0917333 C8.88482143,30.7018667 10.0360714,31.1818667 11.2505357,31.5066667 C11.2526786,31.5072 11.2542857,31.5088 11.2564286,31.5093333 C11.2591071,31.5098667 11.2617857,31.5098667 11.2644643,31.5104 C12.4569643,31.8282667 13.7083929,32 15,32 C16.2916071,32 17.5430357,31.8282667 18.7355357,31.5104 C18.7382143,31.5098667 18.7408929,31.5104 18.7435714,31.5093333 C18.7457143,31.5088 18.7473214,31.5072 18.7494643,31.5066667 C19.9639286,31.1818667 21.1146429,30.7018667 22.1817857,30.0917333 C22.1983929,30.0842667 22.2160714,30.0805333 22.2321429,30.0709333 C22.2428571,30.0645333 22.24875,30.0544 22.2589286,30.0474667 C23.3325,29.4245333 24.3198214,28.6709333 25.1957143,27.8037333 C25.2058929,27.7952 25.2182143,27.792 25.2278571,27.7824 C25.2375,27.7728 25.2407143,27.76 25.2492857,27.7504 C26.1160714,26.8826667 26.8703571,25.9045333 27.4944643,24.8416 C27.5046429,24.8272 27.5175,24.816 27.5266071,24.8 C27.5330357,24.7888 27.5325,24.7770667 27.5383929,24.7658667 C28.1555357,23.6997333 28.6403571,22.5493333 28.9682143,21.3344 C28.96875,21.3317333 28.9708929,21.3296 28.9714286,21.3269333 C28.9719643,21.3253333 28.9714286,21.3232 28.9719643,21.3216 C29.29125,20.1333333 29.4642857,18.8869333 29.4642857,17.6 C29.4642857,16.3130667 29.29125,15.0666667 28.9719643,13.8784 Z M27.5008929,4.40053333 L28.2583929,5.1552 L27.5008929,5.90933333 L26.7428571,5.1552 L27.5008929,4.40053333 Z M1.74160714,5.1552 L2.49910714,4.40053333 L3.25714286,5.1552 L2.49910714,5.90933333 L1.74160714,5.1552 Z M26.7626786,21.2901333 L27.7885714,21.5637333 C27.5448214,22.3413333 27.22875,23.0874667 26.8526786,23.7973333 L25.9382143,23.2714667 C25.6821429,23.1237333 25.3542857,23.2106667 25.2064286,23.4666667 C25.0585714,23.7221333 25.1464286,24.048 25.4025,24.1952 L26.3148214,24.7194667 C25.8792857,25.4032 25.3848214,26.0453333 24.8351786,26.6373333 L24.0910714,25.8965333 C23.8816071,25.688 23.5430357,25.688 23.3335714,25.8965333 C23.1241071,26.1050667 23.1241071,26.4421333 23.3335714,26.6506667 L24.0776786,27.3914667 C23.4830357,27.9386667 22.8380357,28.4309333 22.15125,28.8645333 L21.6246429,27.9562667 C21.47625,27.7002667 21.1478571,27.6128 20.8928571,27.7610667 C20.63625,27.9082667 20.5483929,28.2346667 20.6967857,28.4896 L21.225,29.4 C20.5119643,29.7744 19.7630357,30.0890667 18.9814286,30.3317333 L18.7066071,29.3109333 C18.63,29.0261333 18.3364286,28.8565333 18.0503571,28.9338667 C17.7648214,29.0101333 17.595,29.3024 17.6716071,29.5872 L17.9453571,30.6048 C17.1653571,30.7797333 16.3601786,30.8874667 15.5357143,30.92 L15.5357143,29.8666667 C15.5357143,29.5717333 15.29625,29.3333333 15,29.3333333 C14.70375,29.3333333 14.4642857,29.5717333 14.4642857,29.8666667 L14.4642857,30.92 C13.6398214,30.8874667 12.8346429,30.7797333 12.0546429,30.6048 L12.3283929,29.5872 C12.405,29.3029333 12.2351786,29.0101333 11.9496429,28.9338667 C11.6641071,28.8570667 11.37,29.0261333 11.2933929,29.3109333 L11.0185714,30.3317333 C10.2375,30.0890667 9.48803571,29.7744 8.775,29.4 L9.30321429,28.4896 C9.45107143,28.2341333 9.36321429,27.9082667 9.10714286,27.7610667 C8.85107143,27.6133333 8.52321429,27.7002667 8.37535714,27.9562667 L7.84875,28.8645333 C7.16196429,28.4309333 6.51696429,27.9386667 5.92232143,27.3914667 L6.66642857,26.6506667 C6.87589286,26.4421333 6.87589286,26.1050667 6.66642857,25.8965333 C6.45696429,25.688 6.11839286,25.688 5.90892857,25.8965333 L5.16482143,26.6373333 C4.61517857,26.0453333 4.12071429,25.4032 3.68517857,24.7194667 L4.5975,24.1952 C4.85410714,24.048 4.94196429,23.7216 4.79357143,23.4666667 C4.64517857,23.2106667 4.31678571,23.1232 4.06178571,23.2714667 L3.14732143,23.7973333 C2.77125,23.0874667 2.45517857,22.3418667 2.21142857,21.5637333 L3.23732143,21.2901333 C3.52285714,21.2138667 3.69267857,20.9216 3.61607143,20.6368 C3.54,20.352 3.24642857,20.1824 2.95982143,20.2597333 L1.93714286,20.5322667 C1.76196429,19.7557333 1.65321429,18.9541333 1.62053571,18.1333333 L2.67857143,18.1333333 C2.97482143,18.1333333 3.21428571,17.8949333 3.21428571,17.6 C3.21428571,17.3050667 2.97482143,17.0666667 2.67857143,17.0666667 L1.62053571,17.0666667 C1.65321429,16.2458667 1.76142857,15.4442667 1.93714286,14.6677333 L2.95982143,14.9408 C3.00642857,14.9530667 3.05303571,14.9589333 3.09910714,14.9589333 C3.33535714,14.9589333 3.55178571,14.8021333 3.61607143,14.5637333 C3.69321429,14.2794667 3.52285714,13.9866667 3.23732143,13.9104 L2.21142857,13.6362667 C2.45517857,12.8586667 2.77125,12.1125333 3.14732143,11.4026667 L4.06178571,11.9285333 C4.14535714,11.9770667 4.2375,12 4.32857143,12 C4.51392857,12 4.69392857,11.9045333 4.79303571,11.7333333 C4.94089286,11.4778667 4.85303571,11.152 4.59696429,11.0048 L3.68464286,10.4805333 C4.12017857,9.7968 4.61464286,9.15466667 5.16428571,8.56266667 L5.90839286,9.30346667 C6.01285714,9.40746667 6.15,9.45973333 6.28714286,9.45973333 C6.42428571,9.45973333 6.56142857,9.40746667 6.66589286,9.30346667 C6.87535714,9.09493333 6.87535714,8.75786667 6.66589286,8.54933333 L5.92178571,7.80853333 C6.51642857,7.26186667 7.16142857,6.76906667 7.84821429,6.33546667 L8.37482143,7.24426667 C8.47446429,7.41493333 8.65392857,7.51093333 8.83928571,7.51093333 C8.93035714,7.51093333 9.0225,7.488 9.10660714,7.43946667 C9.36321429,7.29226667 9.45107143,6.96586667 9.30267857,6.71093333 L8.77446429,5.8 C9.4875,5.4256 10.2364286,5.11093333 11.0180357,4.86826667 L11.2928571,5.8896 C11.3566071,6.12746667 11.5730357,6.2848 11.8098214,6.2848 C11.8558929,6.2848 11.9025,6.27893333 11.9491071,6.26666667 C12.2346429,6.1904 12.4044643,5.89813333 12.3278571,5.61333333 L12.0541071,4.5952 C12.6819643,4.4544 13.3253571,4.35786667 13.9826786,4.3088 C14.14875,4.29653333 14.29875,4.28746667 14.4439286,4.28053333 C14.4508929,4.28053333 14.4573214,4.28053333 14.4642857,4.28 L14.4642857,5.33333333 C14.4642857,5.62826667 14.70375,5.86666667 15,5.86666667 C15.29625,5.86666667 15.5357143,5.62826667 15.5357143,5.33333333 L15.5357143,4.28 C15.5426786,4.28 15.5491071,4.28 15.5560714,4.28053333 C15.70125,4.28746667 15.8507143,4.29653333 16.0173214,4.3088 C16.6746429,4.3584 17.3185714,4.4544 17.9458929,4.5952 L17.6721429,5.61333333 C17.5955357,5.8976 17.7653571,6.1904 18.0508929,6.26666667 C18.0975,6.27893333 18.1441071,6.2848 18.1901786,6.2848 C18.4264286,6.2848 18.6433929,6.12746667 18.7071429,5.8896 L18.9819643,4.86826667 C19.7630357,5.11093333 20.5125,5.4256 21.2255357,5.8 L20.6973214,6.71093333 C20.5494643,6.9664 20.6373214,7.29226667 20.8933929,7.43946667 C20.9775,7.488 21.0696429,7.51093333 21.1607143,7.51093333 C21.3460714,7.51093333 21.5260714,7.41493333 21.6251786,7.24426667 L22.1517857,6.33546667 C22.8385714,6.76906667 23.4835714,7.26186667 24.0782143,7.80853333 L23.3341071,8.54933333 C23.1246429,8.75786667 23.1246429,9.09493333 23.3341071,9.30346667 C23.4385714,9.40746667 23.5757143,9.45973333 23.7128571,9.45973333 C23.85,9.45973333 23.9871429,9.40746667 24.0916071,9.30346667 L24.8357143,8.56266667 C25.3853571,9.15466667 25.8798214,9.7968 26.3153571,10.4805333 L25.4030357,11.0048 C25.1464286,11.152 25.0585714,11.4778667 25.2069643,11.7333333 C25.3066071,11.9045333 25.4860714,12 25.6714286,12 C25.7625,12 25.8546429,11.9770667 25.93875,11.9285333 L26.8532143,11.4026667 C27.2292857,12.1125333 27.5453571,12.8581333 27.7891071,13.6362667 L26.7632143,13.9104 C26.4776786,13.9866667 26.3073214,14.2789333 26.3844643,14.5637333 C26.44875,14.8021333 26.6646429,14.9589333 26.9014286,14.9589333 C26.9475,14.9589333 26.9941071,14.9530667 27.0407143,14.9408 L28.0633929,14.6677333 C28.2391071,15.4442667 28.3473214,16.2458667 28.38,17.0666667 L27.3214286,17.0666667 C27.0251786,17.0666667 26.7857143,17.3050667 26.7857143,17.6 C26.7857143,17.8949333 27.0251786,18.1333333 27.3214286,18.1333333 L28.3794643,18.1333333 C28.3467857,18.9541333 28.2385714,19.7557333 28.0628571,20.5328 L27.0401786,20.2602667 C26.7557143,20.1834667 26.4605357,20.3530667 26.3839286,20.6373333 C26.3073214,20.9216 26.4771429,21.2138667 26.7626786,21.2901333 Z M14.4642857,3.21173333 L14.4642857,1.6 L12.5892857,1.6 C12.4419643,1.6 12.3214286,1.48 12.3214286,1.33333333 C12.3214286,1.18666667 12.4419643,1.06666667 12.5892857,1.06666667 L17.4107143,1.06666667 C17.5580357,1.06666667 17.6785714,1.18666667 17.6785714,1.33333333 C17.6785714,1.48 17.5580357,1.6 17.4107143,1.6 L15.5357143,1.6 L15.5357143,3.21173333 C15.3482143,3.20373333 15.1719643,3.2 15,3.2 C14.8280357,3.2 14.6517857,3.20373333 14.4642857,3.21173333 Z" id="Shape"></path>
                </g>
            </g>
        </g>
    </g>
</svg>