<?xml version="1.0" encoding="UTF-8"?>
<svg width="30px" height="29px" viewBox="0 0 30 29" version="1.1" xmlns="http://www.w3.org/2000/svg" xmlns:xlink="http://www.w3.org/1999/xlink">
    <!-- Generator: Sketch 50.2 (55047) - http://www.bohemiancoding.com/sketch -->
    <title>usp3-icon</title>
    <desc>Created with Sketch.</desc>
    <defs></defs>
    <g id="Symbols" stroke="none" stroke-width="1" fill="none" fill-rule="evenodd">
        <g id="USP" transform="translate(-599.000000, 0.000000)" fill="#000000" fill-rule="nonzero">
            <g id="usp3-icon">
                <g transform="translate(599.000000, 0.000000)">
                    <path d="M30,17.3292683 C30,16.5735589 29.7012305,15.8693659 29.18625,15.3500183 C29.7700195,14.7074797 30.0675,13.8460854 29.9862305,12.949561 C29.8399805,11.3513191 28.4087109,10.0988963 26.72625,10.0988963 L19.005,10.0988963 C19.3875,8.93070325 19.9999805,6.78930081 19.9999805,5.06910569 C19.9999805,2.34169106 17.69625,0.0393150407 16.2499805,0.0393150407 C14.9524805,0.0393150407 14.0237109,0.774924797 13.9849805,0.805103659 C13.8362109,0.924581301 13.7499609,1.10565447 13.7499609,1.29674797 L13.7499609,5.56075 L10.1487305,13.4060163 L9.99996094,13.4827012 L9.99996094,13.2425081 C9.99996094,12.8954512 9.71994141,12.6137622 9.37494141,12.6137622 L3.12498047,12.6137622 C1.40126953,12.6138211 0,14.0234451 0,15.7574329 L0,25.8170732 C0,27.5511199 1.40126953,28.960685 3.12498047,28.960685 L6.87498047,28.960685 C8.22621094,28.960685 9.38121094,28.0930427 9.81621094,26.8821159 C10.85625,27.4203252 12.2562305,27.703252 13.125,27.703252 L24.5987695,27.703252 C25.9600195,27.703252 27.1512891,26.7802622 27.43125,25.5077398 C27.5749805,24.8513496 27.49125,24.191187 27.20625,23.6177886 C28.12875,23.1512541 28.7500195,22.1918374 28.7500195,21.101626 C28.7500195,20.6564878 28.6487695,20.2302114 28.4575195,19.8454309 C29.3800195,19.3776585 30,18.4194797 30,17.3292683 Z M27.36375,18.8809451 C27.1225195,18.9098862 26.9187305,19.0745732 26.8412695,19.3072215 C26.7650391,19.5398699 26.8287891,19.7950935 27.0062695,19.9636118 C27.3237891,20.2641626 27.5000391,20.6690427 27.5000391,21.101626 C27.5000391,21.8950589 26.9037891,22.5615285 26.1150586,22.6533028 C25.8738281,22.6822439 25.6700391,22.8469309 25.5925781,23.0795793 C25.5163477,23.3122276 25.5800977,23.5674512 25.7575781,23.7359695 C26.1688477,24.1257602 26.3338477,24.672752 26.2100977,25.2361301 C26.0563477,25.9377886 25.3788281,26.4458191 24.5988281,26.4458191 L13.125,26.4458191 C12.1099805,26.4458191 10.4074805,25.9667297 9.8175,25.371935 C9.63873047,25.1933963 9.36873047,25.1405833 9.13623047,25.2361301 C8.9025,25.3329736 8.74998047,25.5630874 8.74998047,25.8170732 C8.74998047,26.8570061 7.90875,27.703252 6.87498047,27.703252 L3.12498047,27.703252 C2.09121094,27.703252 1.24998047,26.8570061 1.24998047,25.8170732 L1.24998047,15.7574329 C1.24998047,14.7175 2.09121094,13.8712541 3.12498047,13.8712541 L8.74998047,13.8712541 L8.74998047,14.5 C8.74998047,14.7175589 8.86248047,14.9199695 9.04746094,15.0356748 C9.22998047,15.146311 9.45996094,15.157628 9.65496094,15.0620813 L10.9049414,14.4333354 C11.0312109,14.3704431 11.1324609,14.2648171 11.1924609,14.1353191 L14.9424609,5.96185772 C14.9799609,5.87886585 14.9999414,5.78832927 14.9999414,5.69779268 L14.9999414,1.63749797 C15.2599805,1.49291057 15.7112695,1.29674797 16.2499805,1.29674797 C16.935,1.29674797 18.75,3.00939837 18.75,5.06910569 C18.75,7.28224187 17.5525195,10.4723598 17.5412695,10.5038354 C17.4687891,10.6962256 17.49375,10.9137846 17.61,11.0847785 C17.7274805,11.2545346 17.9200195,11.3563882 18.1249805,11.3563882 L26.72625,11.3563882 C27.76875,11.3563882 28.65375,12.1070874 28.7412305,13.0652663 C28.8075,13.7820142 28.4649609,14.4635732 27.85125,14.8445813 C27.66,14.9627622 27.5462695,15.1765488 27.555,15.404128 C27.5637305,15.6317073 27.69375,15.8354146 27.8937305,15.9398028 C28.4224805,16.2101748 28.7499609,16.743315 28.7499609,17.3292683 C28.7500195,18.1227012 28.1537695,18.7891707 27.36375,18.8809451 Z" id="Shape"></path>
                    <path d="M9.375,13.8712541 C9.03,13.8712541 8.74998047,14.1529431 8.74998047,14.5 L8.74998047,25.8170732 C8.74998047,26.1641301 9.03,26.4458191 9.375,26.4458191 C9.72,26.4458191 10.0000195,26.1641301 10.0000195,25.8170732 L10.0000195,14.5 C10.0000195,14.1529431 9.72,13.8712541 9.375,13.8712541 Z" id="Shape"></path>
                </g>
            </g>
        </g>
    </g>
</svg>