<?xml version="1.0" encoding="UTF-8"?>
<svg width="29px" height="24px" viewBox="0 0 29 24" version="1.1" xmlns="http://www.w3.org/2000/svg" xmlns:xlink="http://www.w3.org/1999/xlink">
    <!-- Generator: Sketch 50.2 (55047) - http://www.bohemiancoding.com/sketch -->
    <title>usp4-icon</title>
    <desc>Created with Sketch.</desc>
    <defs></defs>
    <g id="Symbols" stroke="none" stroke-width="1" fill="none" fill-rule="evenodd">
        <g id="USP" transform="translate(-902.000000, -5.000000)" fill="#000000" fill-rule="nonzero">
            <g id="usp4-icon">
                <g transform="translate(902.000000, 5.000000)">
                    <path d="M28.7341377,16.3309008 L24.1394611,12.6754809 L24.1394611,11.2074504 C24.1394611,11.0061985 24.0499431,10.8166718 23.8976497,10.6954809 L14.853991,3.50051908 C14.6372725,3.32812214 14.3387635,3.32812214 14.1220449,3.50051908 L5.07838623,10.6954809 C4.92609281,10.8166718 4.83657485,11.0061985 4.83657485,11.2074504 L4.83657485,12.6754809 L0.241898204,16.3309008 C0.0896047904,16.4520916 8.68263473e-05,16.6416183 8.68263473e-05,16.8428702 L8.68263473e-05,23.3212214 C8.68263473e-05,23.6753588 0.272200599,23.9624427 0.607871257,23.9624427 L5.44435928,23.9624427 L10.2808473,23.9624427 L18.6951886,23.9624427 L23.5316766,23.9624427 L28.3681647,23.9624427 C28.7038353,23.9624427 28.9759491,23.6753588 28.9759491,23.3212214 L28.9759491,16.8428702 C28.9759491,16.6416183 28.8864311,16.4520916 28.7341377,16.3309008 Z M15.1452066,22.6799084 L13.8307425,22.6799084 L13.8307425,19.4476031 L15.1452066,19.4476031 L15.1452066,22.6799084 Z M16.3607754,22.6799084 L16.3607754,18.8063817 C16.3607754,18.4522443 16.0886617,18.1651603 15.752991,18.1651603 L13.2229581,18.1651603 C12.8872874,18.1651603 12.6151737,18.4522443 12.6151737,18.8063817 L12.6151737,22.6799084 L9.67297605,22.6799084 L6.05214371,22.6799084 L6.05214371,11.5269618 L14.488018,4.81548092 L22.9238922,11.5269618 L22.9238922,22.6799084 L19.3029731,22.6799084 L16.3607754,22.6799084 Z M1.21565569,17.1623817 L4.83657485,14.2816489 L4.83657485,22.6799084 L1.21565569,22.6799084 L1.21565569,17.1623817 Z M27.7603802,22.6799084 L24.1394611,22.6799084 L24.1394611,14.2816489 L27.7603802,17.1623817 L27.7603802,22.6799084 Z" id="Shape"></path>
                    <path d="M0.973757485,12.2082137 L14.488018,1.45667176 L28.0021916,12.2083053 C28.1118533,12.2955115 28.2402695,12.3376489 28.3677305,12.3376489 C28.5518892,12.3376489 28.7339641,12.2496183 28.8534371,12.0824427 C29.0555689,11.7997557 29.0021707,11.3976183 28.7341377,11.184458 L14.853991,0.141618321 C14.6372725,-0.030778626 14.3387635,-0.030778626 14.1220449,0.141618321 L0.241898204,11.1843664 C-0.0261347305,11.3976183 -0.0795329341,11.7996641 0.122598802,12.0823511 C0.324643713,12.3651298 0.705898204,12.4214656 0.973757485,12.2082137 Z" id="Shape"></path>
                </g>
            </g>
        </g>
    </g>
</svg>